<svg xmlns="http://www.w3.org/2000/svg" viewBox="0 0 64 64" fill="none">
  <rect width="64" height="64" rx="16" fill="#09111f" />
  <path
    d="M16 33.5c0-8.6 6.9-15.5 15.5-15.5 7.7 0 14.1 5.6 15.3 12.9h-5.3c-1.1-4.3-5-7.4-9.7-7.4-5.6 0-10 4.4-10 10s4.4 10 10 10c4.7 0 8.6-3.1 9.7-7.4h5.3C45.6 43.4 39.2 49 31.5 49 22.9 49 16 42.1 16 33.5Z"
    fill="#f3f7ff"
  />
  <circle cx="45.5" cy="22.5" r="5.5" fill="#2ad4ff" />
  <path
    d="M45.5 14v17M37 22.5h17"
    stroke="#2ad4ff"
    stroke-linecap="round"
    stroke-width="2"
  />
</svg>
