<svg xmlns="http://www.w3.org/2000/svg" viewBox="0 0 1600 900" fill="none">
  <defs>
    <linearGradient id="sky" x1="800" y1="34" x2="800" y2="420" gradientUnits="userSpaceOnUse">
      <stop stop-color="#8FB3D6" />
      <stop offset=".42" stop-color="#D9D8D2" />
      <stop offset="1" stop-color="#B6A28F" />
    </linearGradient>
    <linearGradient id="water" x1="800" y1="420" x2="800" y2="900" gradientUnits="userSpaceOnUse">
      <stop stop-color="#6E8E98" />
      <stop offset=".5" stop-color="#274659" />
      <stop offset="1" stop-color="#102030" />
    </linearGradient>
    <filter id="blur" x="-20%" y="-20%" width="140%" height="140%">
      <feGaussianBlur stdDeviation="10" />
    </filter>
    <filter id="grain" x="-20%" y="-20%" width="140%" height="140%">
      <feTurbulence type="fractalNoise" baseFrequency="0.82" numOctaves="2" stitchTiles="stitch" />
      <feColorMatrix type="saturate" values="0" />
      <feComponentTransfer>
        <feFuncA type="table" tableValues="0 0.08" />
      </feComponentTransfer>
    </filter>
  </defs>

  <rect width="1600" height="900" fill="url(#sky)" />
  <g filter="url(#blur)" opacity=".78">
    <ellipse cx="360" cy="126" rx="96" ry="30" fill="#F7F8F5" />
    <ellipse cx="980" cy="110" rx="128" ry="38" fill="#FBFBF8" />
  </g>

  <path d="M0 430H1600V900H0V430Z" fill="url(#water)" />
  <path d="M0 544C166 516 306 510 470 530C658 554 840 560 1026 534C1208 506 1372 510 1600 542V900H0V544Z" fill="#163042" opacity=".78"/>

  <path d="M0 410L182 334H348L412 430H0V410Z" fill="#6A4E44" />
  <path d="M286 274H414V430H286V274Z" fill="#B47152" />
  <polygon points="286,274 350,214 414,274" fill="#704134" />
  <path d="M392 236H514V430H392V236Z" fill="#8A5B4C" />
  <polygon points="392,236 454,176 514,236" fill="#533B39" />
  <path d="M480 290H618V430H480V290Z" fill="#C28C60" />
  <polygon points="480,290 548,228 618,290" fill="#694436" />

  <path d="M974 286H1094V430H974V286Z" fill="#D0B18F" />
  <polygon points="974,286 1036,230 1094,286" fill="#674C41" />
  <path d="M1062 242H1186V430H1062V242Z" fill="#9A684F" />
  <polygon points="1062,242 1124,182 1186,242" fill="#533B3A" />
  <path d="M1154 278H1294V430H1154V278Z" fill="#B7795A" />
  <polygon points="1154,278 1224,214 1294,278" fill="#764939" />

  <path d="M606 436C676 392 742 376 802 376C862 376 928 392 996 436" stroke="#D8DBE0" stroke-width="22" stroke-linecap="round"/>
  <path d="M616 434C680 396 744 382 802 382C860 382 924 396 986 434" stroke="#7C858F" stroke-width="10" stroke-linecap="round"/>
  <path d="M676 426V454" stroke="#7C858F" stroke-width="8" />
  <path d="M738 406V458" stroke="#7C858F" stroke-width="8" />
  <path d="M800 398V460" stroke="#7C858F" stroke-width="8" />
  <path d="M862 406V458" stroke="#7C858F" stroke-width="8" />
  <path d="M924 426V454" stroke="#7C858F" stroke-width="8" />

  <path d="M0 430H1600" stroke="#E8EFEF" stroke-opacity=".24" stroke-width="10" />
  <path d="M0 450H1600" stroke="#152635" stroke-opacity=".34" stroke-width="16" />
  <path d="M152 508C286 492 404 494 534 510C674 528 792 530 914 514C1048 496 1180 494 1320 512C1428 526 1522 528 1600 520" stroke="#DCE5EA" stroke-opacity=".16" stroke-width="18"/>

  <g opacity=".62">
    <circle cx="248" cy="394" r="18" fill="#2B3C28" />
    <rect x="242" y="394" width="10" height="62" rx="5" fill="#3C3027" />
    <circle cx="1380" cy="396" r="18" fill="#2B3C28" />
    <rect x="1374" y="396" width="10" height="62" rx="5" fill="#3C3027" />
  </g>

  <rect x="0" y="0" width="1600" height="900" fill="#000" opacity=".08" />
  <rect x="0" y="0" width="1600" height="900" filter="url(#grain)" opacity=".28" />
</svg>
