<svg xmlns="http://www.w3.org/2000/svg" viewBox="0 0 1600 900" fill="none">
  <defs>
    <linearGradient id="sky" x1="800" y1="40" x2="800" y2="520" gradientUnits="userSpaceOnUse">
      <stop stop-color="#8AB7E5" />
      <stop offset="0.48" stop-color="#B9CAD4" />
      <stop offset="1" stop-color="#D7CCBA" />
    </linearGradient>
    <linearGradient id="street" x1="800" y1="420" x2="800" y2="900" gradientUnits="userSpaceOnUse">
      <stop stop-color="#77716A" />
      <stop offset="0.55" stop-color="#66605B" />
      <stop offset="1" stop-color="#4A4543" />
    </linearGradient>
    <linearGradient id="leftFacade" x1="0" y1="220" x2="430" y2="650" gradientUnits="userSpaceOnUse">
      <stop stop-color="#CFA177" />
      <stop offset="1" stop-color="#6A4636" />
    </linearGradient>
    <linearGradient id="rightFacade" x1="1170" y1="220" x2="1600" y2="650" gradientUnits="userSpaceOnUse">
      <stop stop-color="#DCC5A2" />
      <stop offset="1" stop-color="#7A5B48" />
    </linearGradient>
    <linearGradient id="mountain" x1="800" y1="260" x2="800" y2="560" gradientUnits="userSpaceOnUse">
      <stop stop-color="#748190" />
      <stop offset="1" stop-color="#2E3540" />
    </linearGradient>
    <filter id="blur" x="-20%" y="-20%" width="140%" height="140%">
      <feGaussianBlur stdDeviation="10" />
    </filter>
    <filter id="grain" x="-20%" y="-20%" width="140%" height="140%">
      <feTurbulence type="fractalNoise" baseFrequency="0.85" numOctaves="2" stitchTiles="stitch" />
      <feColorMatrix type="saturate" values="0" />
      <feComponentTransfer>
        <feFuncA type="table" tableValues="0 0.08" />
      </feComponentTransfer>
    </filter>
  </defs>

  <rect width="1600" height="900" fill="url(#sky)" />
  <g filter="url(#blur)" opacity=".8">
    <ellipse cx="420" cy="150" rx="110" ry="36" fill="#F6F7F0" />
    <ellipse cx="950" cy="118" rx="120" ry="42" fill="#FDFCF5" />
    <ellipse cx="1180" cy="168" rx="88" ry="32" fill="#F4F7FA" />
  </g>

  <path d="M0 474L160 420L270 448L472 320L740 472L968 356L1240 522L1400 396L1600 340V620H0V474Z" fill="url(#mountain)" opacity=".72"/>
  <path d="M0 564L255 510L484 580L694 464L1000 618L1220 474L1450 420L1600 382V900H0V564Z" fill="#1C2230" opacity=".58"/>

  <polygon points="552,416 1048,416 1326,900 274,900" fill="url(#street)" />
  <path d="M776 508L800 516L824 508L808 900H792L776 508Z" fill="#F5EFE3" opacity=".62"/>
  <path d="M786 610L800 616L814 610L806 900H794L786 610Z" fill="#F5EFE3" opacity=".48"/>

  <path d="M0 318L292 208L358 246L376 596L0 660V318Z" fill="url(#leftFacade)" />
  <path d="M1600 304L1314 190L1220 232L1180 616L1600 692V304Z" fill="url(#rightFacade)" />

  <path d="M262 182L348 150L386 170L310 236L232 226L262 182Z" fill="#6B3429" />
  <path d="M1300 174L1190 136L1136 164L1230 248L1336 228L1300 174Z" fill="#7A4738" />

  <rect x="190" y="280" width="36" height="204" rx="8" fill="#7A6152" />
  <rect x="230" y="272" width="58" height="250" rx="10" fill="#B0886E" />
  <rect x="294" y="262" width="42" height="228" rx="8" fill="#8C6B58" />
  <rect x="340" y="286" width="56" height="224" rx="10" fill="#C49D7F" />
  <rect x="1244" y="262" width="62" height="242" rx="10" fill="#D4BC9D" />
  <rect x="1310" y="280" width="46" height="230" rx="8" fill="#B79A7E" />
  <rect x="1362" y="260" width="54" height="246" rx="10" fill="#8B6A57" />
  <rect x="1424" y="284" width="60" height="236" rx="10" fill="#DCC3A6" />

  <rect x="256" y="218" width="52" height="268" rx="8" fill="#D6C8B6" />
  <polygon points="282,112 334,218 230,218" fill="#7D4736" />

  <rect x="1296" y="228" width="42" height="188" rx="8" fill="#E4D7C5" />
  <polygon points="1317,118 1368,228 1266,228" fill="#84604B" />

  <rect x="808" y="206" width="28" height="214" rx="10" fill="#D9D7D0" />
  <polygon points="822,102 866,206 778,206" fill="#4F545D" />
  <rect x="817" y="126" width="10" height="46" rx="5" fill="#4F545D" />

  <g opacity=".68">
    <rect x="210" y="330" width="18" height="28" rx="3" fill="#F6EAD6" />
    <rect x="244" y="330" width="18" height="28" rx="3" fill="#F6EAD6" />
    <rect x="278" y="330" width="18" height="28" rx="3" fill="#F6EAD6" />
    <rect x="314" y="332" width="18" height="28" rx="3" fill="#F6EAD6" />
    <rect x="348" y="334" width="18" height="28" rx="3" fill="#F6EAD6" />
    <rect x="1266" y="322" width="18" height="28" rx="3" fill="#FFF5E8" />
    <rect x="1300" y="324" width="18" height="28" rx="3" fill="#FFF5E8" />
    <rect x="1336" y="328" width="18" height="28" rx="3" fill="#FFF5E8" />
    <rect x="1370" y="334" width="18" height="28" rx="3" fill="#FFF5E8" />
    <rect x="1408" y="340" width="18" height="28" rx="3" fill="#FFF5E8" />
  </g>

  <rect x="0" y="0" width="1600" height="900" fill="#000" opacity=".08" />
  <rect x="0" y="0" width="1600" height="900" filter="url(#grain)" opacity=".28" />
</svg>
